<?xml version="1.0" encoding="utf-8"?>
<svg viewBox="0 0 500 500" xmlns="http://www.w3.org/2000/svg">
  <g transform="matrix(0.171448, 0, 0, -0.167102, 6.558885, 433.14504)" fill="#000000" stroke="none" style="">
    <path d="M1116 2115 c-312 -51 -595 -183 -798 -373 -137 -129 -221 -259 -273 -422 -36 -112 -46 -296 -21 -413 94 -455 565 -814 1161 -886 113 -14 333 -14 450 -1 602 69 1076 428 1171 887 25 117 15 301 -21 413 -48 150 -111 254 -228 377 -98 103 -220 192 -362 262 -138 69 -235 103 -390 138 -97 22 -138 25 -355 29 -180 2 -269 -1 -334 -11z m649 -34 c310 -64 580 -204 764 -396 178 -186 260 -364 267 -586 4 -98 1 -130 -20 -212 -91 -359 -405 -646 -853 -782 -250 -76 -574 -94 -828 -46 -362 68 -670 237 -857 471 -228 283 -269 620 -112 920 106 201 315 392 555 504 158 74 249 100 519 150 14 2 124 3 245 1 175 -2 240 -7 320 -24z"/>
    <path d="M894 1695 c-2 -5 -12 -48 -21 -94 l-18 -84 -34 -3 c-84 -10 -206 -105 -254 -201 -110 -216 -67 -483 88 -544 17 -6 49 -20 72 -31 35 -16 58 -19 128 -15 50 2 84 0 83 -5 -2 -5 -6 -8 -9 -6 -3 2 -12 -2 -20 -9 -39 -32 -229 -18 -310 22 -49 25 -129 98 -129 117 0 6 -3 9 -6 6 -9 -10 22 -61 58 -95 58 -56 140 -86 244 -91 110 -5 179 12 253 63 l51 35 0 -38 c0 -37 -3 -40 -52 -65 -81 -41 -152 -52 -253 -39 -106 14 -182 49 -252 117 -29 28 -53 50 -53 48 0 -26 50 -82 126 -144 31 -24 142 -52 224 -55 88 -3 142 7 210 40 50 24 50 24 64 4 10 -13 29 -22 58 -25 52 -6 84 18 94 72 8 46 28 60 94 68 8 1 17 4 20 7 3 3 22 14 43 25 20 11 37 23 37 27 0 19 18 6 24 -17 14 -55 106 -35 106 23 0 15 4 43 10 62 5 19 11 46 14 60 12 63 28 138 62 295 42 198 44 210 24 210 -9 0 -15 -12 -16 -35 -2 -19 -12 -73 -23 -120 -10 -47 -23 -107 -26 -135 -4 -27 -12 -55 -17 -62 -5 -7 -7 -16 -5 -20 3 -5 -1 -33 -9 -63 -27 -103 -43 -191 -37 -205 4 -11 -3 -15 -30 -15 l-35 0 15 63 c8 34 27 125 43 202 16 77 43 204 59 283 17 78 31 145 31 147 0 3 22 5 48 5 l48 0 -68 -327 c-37 -181 -70 -334 -73 -340 -3 -10 12 -13 58 -13 l62 0 39 184 39 184 191 4 c186 3 193 4 254 32 106 49 172 147 172 256 0 62 -28 138 -65 174 -55 56 -102 65 -346 68 l-216 3 -12 -60 c-34 -167 -28 -153 -64 -146 -41 8 -89 2 -82 -10 4 -5 1 -9 -4 -9 -6 0 -11 6 -12 13 -3 54 -29 101 -82 150 -45 41 -53 33 -15 -15 43 -55 57 -84 63 -133 12 -93 -37 -204 -104 -236 l-31 -16 26 -24 c49 -46 67 -96 61 -169 -6 -75 -30 -151 -59 -191 -27 -37 -128 -89 -186 -98 l-47 -6 -6 -52 c-4 -28 -10 -56 -13 -62 -11 -18 -93 -14 -100 5 -11 28 -7 34 23 34 35 0 37 2 46 60 7 39 6 43 -8 32 -8 -7 -38 -12 -68 -11 -30 1 -121 -1 -204 -4 -136 -5 -154 -3 -197 15 -54 23 -110 80 -134 135 -9 21 -18 74 -21 118 -12 188 77 370 216 439 41 21 101 41 101 34 0 -3 -76 -373 -115 -557 -14 -69 -28 -128 -31 -133 -3 -4 109 -8 249 -8 298 0 350 10 430 80 63 56 87 109 87 196 0 60 -4 77 -29 116 -20 32 -41 50 -65 59 -40 15 -47 29 -14 29 37 0 96 49 123 103 61 124 6 275 -113 306 -51 14 -474 19 -478 6z m439 -15 c26 -5 55 -16 63 -25 9 -8 21 -15 28 -15 23 0 49 -62 54 -131 7 -104 -24 -157 -122 -209 -17 -8 -31 -20 -33 -27 -3 -6 21 -30 51 -52 57 -43 63 -54 69 -131 11 -133 -87 -235 -243 -255 -51 -7 -436 -6 -453 1 -11 4 -16 13 -13 21 8 21 68 310 73 356 3 20 9 40 14 43 5 3 9 20 9 37 1 40 23 136 40 166 6 13 10 32 7 42 -3 11 3 56 14 102 l20 82 187 2 c103 1 209 -2 235 -7z m870 -4 c62 -12 104 -43 131 -99 70 -139 -2 -311 -149 -356 -47 -15 -97 -19 -235 -20 -150 -2 -177 -5 -190 -19 -9 -9 -26 -67 -39 -127 -44 -221 -44 -219 -79 -226 -18 -4 -34 -3 -37 1 -4 7 4 58 25 150 4 19 11 51 15 70 33 166 77 364 85 385 6 15 10 41 10 58 0 18 7 57 16 87 8 30 16 62 16 70 0 8 4 20 9 25 8 11 362 12 422 1z m-655 -426 c-6 -30 -15 -59 -19 -64 -9 -10 -49 20 -49 37 0 9 72 88 76 84 1 -1 -3 -27 -8 -57z m-421 -547 c-3 -3 -11 -2 -17 2 -9 6 -9 10 1 16 14 8 27 -7 16 -18z"/>
    <path d="M1000 1634 c-18 -5 -40 -38 -46 -68 -2 -11 -15 -69 -27 -129 -33 -152 -43 -145 183 -141 112 2 189 8 202 15 55 29 97 111 98 186 0 45 -4 56 -32 83 -17 18 -42 36 -55 41 -26 9 -298 20 -323 13z m324 -48 c46 -19 66 -52 66 -106 0 -61 -27 -110 -75 -137 l-39 -22 -14 52 c-25 99 -97 175 -176 187 -56 8 -66 4 -66 -31 0 -16 -5 -29 -12 -29 -7 -1 8 -12 33 -25 43 -22 78 -56 105 -101 10 -17 11 -16 7 8 -3 15 -25 47 -50 72 -53 54 -52 79 0 73 34 -4 86 -34 87 -50 0 -5 7 -15 15 -23 8 -8 19 -34 25 -57 6 -23 15 -50 20 -59 12 -22 22 -20 -172 -22 -82 -1 -148 1 -148 5 0 5 42 200 55 257 5 22 8 22 156 22 105 0 160 -4 183 -14z"/>
    <path d="M1170 1542 c55 -39 78 -64 109 -122 23 -43 36 -59 43 -52 13 13 -11 67 -49 112 -22 26 -24 33 -12 41 13 9 22 8 84 -7 20 -5 24 -3 19 9 -9 24 -60 37 -143 36 -75 0 -76 0 -51 -17z"/>
    <path d="M995 1394 c-4 -31 -4 -59 0 -62 9 -9 35 28 35 49 0 21 16 33 25 19 4 -6 11 -8 16 -5 5 4 9 2 9 -2 0 -5 9 -14 20 -21 17 -10 20 -10 20 3 0 18 -76 75 -100 75 -14 0 -19 -12 -25 -56z"/>
    <path d="M899 1232 c-15 -16 -61 -192 -75 -289 -9 -56 6 -74 54 -67 21 2 107 6 192 8 85 2 164 7 175 12 76 30 125 104 125 188 0 130 -61 162 -315 164 -121 1 -142 -1 -156 -16z m387 -37 c18 -7 40 -25 49 -39 22 -33 22 -129 1 -162 -21 -31 -75 -71 -110 -80 -24 -6 -27 -4 -23 12 3 11 13 57 22 104 21 105 24 110 54 99 19 -8 22 -14 16 -37 -7 -29 -12 -50 -20 -83 -2 -11 -7 -29 -10 -40 -9 -26 12 -24 26 4 12 20 38 127 39 154 0 7 -13 19 -30 28 -24 13 -61 15 -192 13 l-163 -3 -3 -37 c-2 -20 -10 -42 -18 -48 -29 -25 -12 -31 89 -29 101 1 111 -2 102 -32 -4 -13 -20 -14 -96 -11 -50 3 -94 1 -99 -4 -4 -5 -11 -26 -14 -47 -6 -34 -5 -38 10 -35 10 2 21 14 24 28 6 24 9 25 90 25 l85 0 17 34 c26 55 9 71 -77 72 -38 1 -74 1 -78 0 -5 -1 -7 9 -5 21 3 22 7 23 112 26 61 1 115 7 121 12 17 14 15 -12 -7 -109 -10 -47 -17 -94 -16 -105 3 -20 -2 -21 -170 -24 -162 -2 -173 -1 -168 15 3 10 17 72 31 138 14 66 27 129 30 140 4 19 11 20 177 17 115 -2 183 -8 204 -17z"/>
    <path d="M1884 1632 c-29 -4 -51 -31 -57 -67 -2 -16 -17 -89 -32 -162 -24 -113 -26 -133 -14 -145 11 -10 48 -12 184 -6 94 4 185 10 202 13 45 10 89 63 109 131 32 112 -13 208 -109 230 -26 7 -253 11 -283 6z m324 -52 c60 -37 79 -127 43 -205 -40 -88 -84 -104 -296 -105 l-161 0 35 165 35 165 155 0 c139 0 160 -2 189 -20z"/>
    <path d="M1905 1562 c-3 -3 -5 -16 -5 -28 0 -12 -7 -29 -15 -38 -13 -13 -9 -16 34 -31 49 -16 131 -89 131 -116 0 -7 3 -9 6 -6 11 10 -18 70 -46 96 -14 12 -38 30 -53 38 -19 9 -27 20 -23 29 3 9 6 18 6 20 0 7 34 4 71 -6 20 -6 49 -23 64 -38 31 -30 75 -120 75 -151 0 -20 17 -38 27 -28 10 11 -27 114 -55 153 -41 56 -104 97 -163 104 -27 4 -51 4 -54 2z"/>
    <path d="M2061 1535 c54 -28 90 -68 125 -136 22 -44 44 -64 44 -40 0 23 -34 86 -66 121 l-36 40 36 0 c21 0 46 -5 58 -11 17 -9 19 -8 16 7 -6 31 -48 44 -138 43 l-85 0 46 -24z"/>
    <path d="M1877 1433 c-4 -3 -7 -20 -7 -37 0 -17 -4 -46 -9 -63 -6 -21 -6 -35 0 -39 12 -7 41 15 34 26 -6 10 14 80 23 80 13 0 87 -42 94 -53 4 -6 9 -9 13 -6 11 11 -39 62 -79 80 -44 20 -59 23 -69 12z"/>
    <path d="M2351 1634 c75 -81 101 -186 71 -289 -24 -83 -74 -142 -150 -176 -48 -21 -49 -23 -56 -99 -9 -108 -66 -219 -158 -310 -45 -44 -66 -57 -153 -96 -56 -24 -179 -35 -365 -32 -177 3 -185 4 -185 23 0 19 8 20 225 25 197 5 232 8 282 27 117 43 210 131 263 246 30 66 55 154 55 194 0 15 -2 15 -13 -1 -12 -16 -32 -18 -184 -20 l-171 -1 -8 -45 c-4 -25 -8 -52 -9 -60 -1 -8 -7 -33 -13 -55 -12 -45 -20 -91 -27 -149 -7 -54 -21 -68 -62 -61 -19 3 -43 0 -53 -5 -16 -8 -23 -6 -37 9 -9 11 -20 18 -25 15 -14 -9 -9 -24 7 -24 9 0 18 -6 21 -13 3 -9 25 -14 62 -15 47 0 62 4 85 24 16 13 26 27 24 32 -3 4 0 18 5 32 6 14 12 34 13 45 2 11 6 31 9 45 3 14 8 42 11 63 3 21 10 58 16 82 13 51 -8 46 189 47 133 1 134 0 102 -84 -27 -72 -48 -109 -55 -101 -4 3 -7 -1 -7 -10 0 -26 -90 -112 -145 -140 -97 -48 -146 -55 -359 -56 -176 -1 -200 -3 -211 -18 -17 -23 -4 -55 29 -71 41 -21 389 -17 481 5 111 26 231 102 277 175 13 21 26 38 29 38 14 0 72 146 87 220 15 73 19 80 47 92 46 19 112 89 140 149 20 44 25 70 25 136 0 120 -40 197 -125 240 -27 14 -26 11 16 -33z"/>
    <path d="M755 1403 c-109 -71 -180 -222 -180 -378 1 -44 7 -97 14 -118 14 -42 53 -92 83 -108 18 -10 19 -9 7 13 -6 13 -18 26 -25 31 -19 11 -44 96 -45 152 -2 85 12 168 39 225 35 75 58 104 119 152 77 59 68 83 -12 31z"/>
    <path d="M461 1264 c0 -11 3 -14 6 -6 3 7 2 16 -1 19 -3 4 -6 -2 -5 -13z"/>
    <path d="M725 423 c-4 -16 -10 -47 -16 -70 -14 -62 -13 -63 41 -63 42 0 52 4 67 26 13 21 14 30 5 45 -7 11 -8 20 -2 24 17 10 11 44 -9 55 -11 5 -33 10 -50 10 -25 0 -32 -5 -36 -27z m80 -18 c0 -15 -8 -21 -32 -23 -27 -3 -33 0 -33 16 0 26 10 33 40 30 17 -2 25 -9 25 -23z m1 -57 c10 -16 -24 -38 -59 -38 -22 0 -28 4 -23 16 3 9 6 20 6 25 0 13 68 11 76 -3z"/>
    <path d="M861 388 c-7 -35 -15 -71 -18 -82 -3 -12 -1 -17 8 -14 21 7 49 158 30 158 -4 0 -14 -28 -20 -62z"/>
    <path d="M926 428 c-20 -28 -6 -54 34 -63 36 -8 46 -21 30 -40 -19 -22 -61 -19 -67 5 -7 26 -23 26 -23 0 0 -39 74 -54 104 -21 24 26 12 59 -22 67 -41 10 -55 24 -41 40 15 19 48 18 55 -1 6 -16 34 -21 34 -7 0 17 -37 42 -63 42 -15 0 -32 -9 -41 -22z"/>
    <path d="M1040 434 c0 -12 6 -15 25 -10 29 7 30 3 11 -76 -11 -47 -11 -58 0 -58 7 0 17 23 24 58 16 81 17 82 45 82 14 0 25 5 25 10 0 6 -28 10 -65 10 -53 0 -65 -3 -65 -16z"/>
    <path d="M1185 438 c-4 -16 -35 -134 -42 -167 -3 -13 -14 -26 -24 -28 -11 -3 -19 -9 -19 -15 0 -5 10 -3 23 4 12 7 26 11 30 10 14 -4 20 30 6 39 -11 7 -11 9 2 9 11 0 19 12 23 36 7 32 10 35 39 32 30 -3 32 -5 29 -35 -2 -24 1 -33 12 -33 12 0 15 9 12 40 -2 22 0 43 5 46 16 10 9 53 -10 64 -27 14 -81 13 -86 -2z m83 -20 c18 -18 -5 -38 -43 -38 -29 0 -32 2 -27 25 3 19 10 25 31 25 15 0 32 -5 39 -12z"/>
    <path d="M1335 425 c-31 -30 -34 -93 -7 -118 45 -41 122 1 122 65 0 74 -65 104 -115 53z m83 -7 c19 -19 14 -66 -8 -88 -36 -36 -80 -20 -80 30 0 54 55 91 88 58z"/>
    <path d="M1387 363 c-9 -9 -9 -33 1 -33 4 0 13 9 20 20 10 16 10 20 -1 20 -8 0 -17 -3 -20 -7z"/>
    <path d="M1536 379 c-19 -86 -20 -92 -3 -87 6 3 14 18 17 34 4 22 11 29 30 30 55 2 61 5 72 29 16 36 -12 65 -62 65 l-38 0 -16 -71z m95 35 c11 -14 10 -18 -6 -30 -20 -15 -65 -19 -65 -6 0 4 3 17 6 30 8 26 45 30 65 6z"/>
    <path d="M1686 438 c-2 -7 -9 -40 -16 -73 -15 -75 -17 -77 -41 -62 -16 10 -21 9 -29 -3 -5 -8 -6 -18 -3 -22 2 -5 0 -15 -7 -23 -6 -7 -7 -16 -2 -19 5 -3 15 6 22 19 7 13 25 27 40 30 24 5 29 13 39 63 6 31 14 67 17 80 7 23 -14 33 -20 10z"/>
    <path d="M1735 440 c-7 -12 -3 -13 50 -10 l40 2 -62 -63 c-35 -35 -63 -67 -63 -71 0 -4 63 -7 141 -7 138 1 141 2 151 25 15 33 75 35 80 2 2 -12 9 -23 16 -26 9 -3 11 3 8 20 -3 12 -10 49 -16 81 -7 35 -16 57 -23 54 -6 -2 -30 -33 -52 -70 l-40 -66 -55 -1 -54 0 62 63 c34 34 62 66 62 70 0 4 -27 7 -61 7 -44 0 -60 -3 -57 -12 3 -8 19 -12 41 -10 20 2 37 2 37 -1 0 -2 -25 -29 -57 -60 -53 -54 -59 -57 -105 -57 l-49 0 61 62 c33 34 60 66 60 70 0 12 -108 10 -115 -2z m327 -50 c4 -26 1 -30 -19 -30 -23 0 -23 1 -8 30 9 17 17 30 19 30 2 0 6 -13 8 -30z"/>
    <path d="M1990 440 c0 -6 7 -10 15 -10 8 0 15 2 15 4 0 2 -7 6 -15 10 -8 3 -15 1 -15 -4z"/>
    <path d="M2090 443 c0 -3 6 -11 14 -17 14 -11 46 -127 46 -168 1 -21 2 -21 11 -5 10 16 7 45 -16 153 -4 18 -55 53 -55 37z"/>
    <path d="M1460 432 c0 -5 11 -19 25 -32 13 -12 22 -26 20 -31 -3 -4 0 -11 6 -15 15 -9 1 56 -17 73 -14 15 -34 17 -34 5z"/>
    <path d="M1030 366 c0 -2 8 -10 18 -17 15 -13 16 -12 3 4 -13 16 -21 21 -21 13z"/>
    <path d="M935 340 c3 -5 8 -10 11 -10 2 0 4 5 4 10 0 6 -5 10 -11 10 -5 0 -7 -4 -4 -10z"/>
    <path d="M1232 276 c3 -15 1 -29 -3 -32 -5 -3 -9 -10 -9 -17 0 -6 7 -1 16 11 8 12 20 20 25 17 5 -4 9 0 9 7 0 7 -10 19 -21 27 -20 12 -21 11 -17 -13z"/>
    <path d="M1468 269 c-33 -36 -89 -40 -115 -9 -22 25 -33 25 -33 1 0 -12 -8 -21 -22 -24 -21 -3 -21 -4 -4 -12 12 -5 21 -3 26 5 7 12 13 12 37 0 31 -15 81 -14 101 2 6 6 12 7 12 2 1 -15 40 37 40 52 0 20 -11 15 -42 -17z"/>
    <path d="M2032 264 c-22 -26 -22 -26 -175 -24 -181 3 -182 3 -137 -13 33 -11 125 -14 250 -6 36 2 60 9 72 21 15 15 23 16 38 8 16 -8 20 -8 20 4 0 12 -28 37 -42 36 -2 0 -13 -12 -26 -26z"/>
    <path d="M706 258 c3 -13 9 -25 11 -28 4 -4 116 -4 193 0 8 1 35 -2 60 -5 51 -7 120 16 120 40 0 21 -23 19 -43 -5 -25 -29 -79 -30 -110 -2 -17 15 -19 15 -28 -1 -6 -9 -17 -17 -25 -17 -8 0 -12 5 -9 10 3 6 -3 10 -14 10 -11 0 -23 -4 -26 -10 -3 -5 -31 -10 -61 -10 -47 0 -54 2 -54 20 0 11 -5 20 -11 20 -6 0 -8 -9 -3 -22z"/>
    <path d="M1520 271 c0 -6 4 -13 10 -16 6 -3 7 1 4 9 -7 18 -14 21 -14 7z"/>
    <path d="M1661 264 c0 -11 3 -14 6 -6 3 7 2 16 -1 19 -3 4 -6 -2 -5 -13z"/>
    <path d="M2120 229 c0 -5 5 -7 10 -4 6 3 10 8 10 11 0 2 -4 4 -10 4 -5 0 -10 -5 -10 -11z"/>
  </g>
</svg>