<?xml version="1.0" encoding="utf-8"?>
<svg viewBox="0 0 500 500" xmlns="http://www.w3.org/2000/svg">
  <g transform="matrix(0.194264, 0, 0, -0.202016, -44.810575, 399.074261)" fill="#000000" stroke="none" style="">
    <path d="M2410 845 l0 -475 85 0 85 0 0 475 0 475 -85 0 -85 0 0 -475z"/>
    <path d="M300 1215 l0 -85 85 0 85 0 0 85 0 85 -85 0 -85 0 0 -85z"/>
    <path d="M1300 958 c1 -345 9 -440 42 -499 29 -53 100 -87 188 -91 l65 -3 3 77 3 76 -43 7 c-76 13 -78 17 -78 192 l0 153 60 0 60 0 0 75 0 75 -60 0 -60 0 0 125 0 125 -90 0 -90 0 0 -312z"/>
    <path d="M840 1010 c-25 -12 -57 -33 -72 -47 l-28 -27 0 42 0 42 -85 0 -85 0 0 -325 0 -325 84 0 85 0 3 208 c3 230 7 243 71 282 39 24 116 26 158 4 58 -30 69 -74 69 -296 l0 -198 85 0 85 0 0 218 c0 244 -8 291 -61 355 -46 55 -100 80 -189 84 -61 3 -84 0 -120 -17z"/>
    <path d="M1885 1016 c-57 -18 -82 -33 -132 -79 -65 -60 -95 -125 -101 -219 -9 -146 50 -256 172 -318 124 -63 271 -53 386 27 30 22 55 45 55 52 0 7 -25 32 -54 56 l-55 42 -43 -31 c-36 -25 -56 -31 -113 -34 -61 -4 -75 -1 -113 22 -37 21 -77 73 -77 100 0 3 115 6 256 6 l257 0 -7 72 c-13 142 -91 252 -209 297 -65 24 -158 27 -222 7z m195 -157 c35 -20 70 -64 70 -88 0 -8 -53 -11 -170 -11 -93 0 -170 3 -170 8 0 17 41 72 65 88 58 38 140 39 205 3z"/>
    <path d="M300 695 l0 -325 85 0 85 0 0 325 0 325 -85 0 -85 0 0 -325z"/>
    <path d="M2667 472 c-23 -25 -21 -58 3 -82 40 -40 103 -12 103 46 0 50 -72 74 -106 36z m82 -6 c16 -19 10 -66 -10 -79 -44 -28 -95 25 -69 72 13 25 61 29 79 7z"/>
    <path d="M2690 433 c0 -30 3 -35 11 -23 8 11 12 12 16 3 9 -24 19 -13 18 20 0 25 -5 33 -22 35 -20 3 -23 -1 -23 -35z m35 17 c3 -5 -1 -10 -9 -10 -9 0 -16 5 -16 10 0 6 4 10 9 10 6 0 13 -4 16 -10z"/>
  </g>
</svg>