<?xml version="1.0" encoding="utf-8"?>
<svg viewBox="0 0 500 500" xmlns="http://www.w3.org/2000/svg">
  <path d="M 459.301 202.378 L 456.503 198.804 L 459.061 198.162 Z" fill="#fff" style=""/>
  <path d="M 456.503 198.804 L 459.061 198.162 L 459.301 202.378 L 456.583 199.662 Z" fill="#fff" style=""/>
  <path d="M 431.322 266.557 C 431.322 273.633 425.726 280.851 415.894 280.851 C 406.061 280.851 400.465 273.633 400.465 266.557 L 400.465 241.757 C 400.465 234.683 406.061 227.464 415.894 227.464 C 425.726 227.464 431.322 234.683 431.322 241.757 Z M 444.832 266.557 L 444.832 241.757 C 444.832 228.25 433.241 216.386 415.894 216.386 C 398.547 216.386 386.956 228.321 386.956 241.757 L 386.956 266.557 C 386.956 280.065 398.547 291.929 415.894 291.929 C 433.241 292 444.832 280.065 444.832 266.557 M 354.58 238.613 C 354.58 247.404 343.708 248.976 339.151 248.976 L 327.561 248.976 C 325.082 248.976 323.723 247.69 323.723 245.546 L 323.723 241.757 C 323.723 234.683 329.319 227.464 339.151 227.464 C 347.386 227.464 354.58 231.109 354.58 238.613 M 368.089 286.997 L 368.089 273.633 C 368.089 263.914 364.093 259.053 360.175 256.051 C 358.737 254.98 358.737 253.693 360.175 252.764 C 362.414 251.191 368.089 247.404 368.089 238.613 C 368.089 224.676 355.619 216.315 339.151 216.315 C 321.804 216.315 310.213 228.25 310.213 241.757 L 310.213 286.926 C 310.213 289.141 311.652 290.357 314.05 290.357 L 319.806 290.357 C 322.284 290.357 323.643 289.141 323.643 286.926 L 323.643 262.77 C 323.643 260.554 325.082 259.339 327.481 259.339 L 339.151 259.339 C 348.984 259.339 354.58 266.557 354.58 273.633 L 354.58 286.997 C 354.58 289.213 356.019 290.428 358.417 290.428 L 364.173 290.428 C 366.73 290.428 368.089 289.141 368.089 286.997 M 277.918 266.557 C 277.918 273.633 272.321 280.851 262.489 280.851 C 252.657 280.851 247.06 273.633 247.06 266.557 L 247.06 241.757 C 247.06 234.683 252.657 227.464 262.489 227.464 C 272.321 227.464 277.918 234.683 277.918 241.757 Z M 291.428 266.557 L 291.428 241.757 C 291.428 228.25 279.836 216.386 262.489 216.386 C 245.142 216.386 233.551 228.321 233.551 241.757 L 233.551 266.557 C 233.551 280.065 245.142 291.929 262.489 291.929 C 279.836 292 291.428 280.065 291.428 266.557 M 214.685 286.997 L 214.685 273.633 C 214.685 261.555 205.892 253.407 198.058 250.406 C 196.139 249.619 195.58 247.904 197.018 245.689 L 212.447 222.103 C 213.885 219.888 212.607 217.887 209.809 217.887 L 203.494 217.887 C 201.016 217.887 199.097 218.816 197.738 221.174 L 182.949 244.902 C 181.191 247.761 179.432 249.262 175.755 249.262 C 172.077 249.262 170.319 247.547 170.319 244.902 L 170.319 221.317 C 170.319 219.101 168.879 217.887 166.481 217.887 L 160.726 217.887 C 158.248 217.887 156.889 219.173 156.889 221.317 L 156.889 286.926 C 156.889 289.141 158.328 290.357 160.726 290.357 L 166.481 290.357 C 168.959 290.357 170.319 289.141 170.319 286.926 L 170.319 273.561 C 170.319 266.486 175.914 259.268 185.747 259.268 C 195.58 259.268 201.176 266.486 201.176 273.561 L 201.176 286.926 C 201.176 289.141 202.614 290.357 205.012 290.357 L 210.768 290.357 C 213.326 290.428 214.685 289.141 214.685 286.997 M 124.513 266.557 C 124.513 273.633 118.917 280.851 109.085 280.851 C 99.252 280.851 93.656 273.633 93.656 266.557 L 93.656 241.757 C 93.656 234.683 99.252 227.464 109.085 227.464 C 118.917 227.464 124.513 234.683 124.513 241.757 Z M 138.022 266.557 L 138.022 241.757 C 138.022 228.25 126.432 216.386 109.085 216.386 C 91.737 216.386 80.147 228.321 80.147 241.757 L 80.147 266.557 C 80.147 280.065 91.737 291.929 109.085 291.929 C 126.432 292 138.022 280.065 138.022 266.557 M 61.281 286.997 L 61.281 273.633 C 61.281 261.555 52.488 253.407 44.653 250.406 C 42.735 249.619 42.175 247.904 43.614 245.689 L 59.043 222.103 C 60.481 219.888 59.202 217.887 56.404 217.887 L 50.089 217.887 C 47.611 217.887 45.692 218.816 44.333 221.174 L 29.545 244.902 C 27.786 247.761 26.028 249.262 22.35 249.262 C 18.673 249.262 16.914 247.547 16.914 244.902 L 16.914 221.317 C 16.914 219.101 15.475 217.887 13.077 217.887 L 7.241 217.887 C 4.763 217.887 3.404 219.173 3.404 221.317 L 3.404 286.926 C 3.404 289.141 4.843 290.357 7.241 290.357 L 12.997 290.357 C 15.475 290.357 16.834 289.141 16.834 286.926 L 16.834 273.561 C 16.834 266.486 22.43 259.268 32.262 259.268 C 42.095 259.268 47.691 266.486 47.691 273.561 L 47.691 286.926 C 47.691 289.141 49.13 290.357 51.528 290.357 L 57.284 290.357 C 59.921 290.428 61.281 289.141 61.281 286.997" style=""/>
  <path d="M 491.597 203.022 L 498.472 205.309 L 483.203 195.303 L 476.408 193.087 Z" fill="#fff" style=""/>
  <path d="M 495.114 203.664 L 482.963 195.732 L 479.686 194.659 L 491.837 202.593 Z M 498.232 205.737 L 491.437 203.521 L 491.597 203.092 L 491.916 202.736 L 491.597 203.092 L 491.437 203.521 C 491.357 203.521 491.357 203.521 491.276 203.45 L 476.089 193.445 C 475.848 193.302 475.848 193.087 475.929 192.873 C 476.089 192.658 476.328 192.587 476.568 192.658 L 483.363 194.874 C 483.442 194.874 483.442 194.945 483.522 194.945 L 498.791 204.88 C 499.032 205.023 499.032 205.309 498.951 205.451 C 498.871 205.594 498.711 205.665 498.472 205.665 C 498.392 205.737 498.312 205.737 498.232 205.737" style=""/>
  <path d="M 456.583 216.814 L 475.768 209.953 L 475.848 193.731 L 456.583 199.519 Z M 455.783 217.887 C 455.624 217.815 455.544 217.672 455.544 217.529 L 455.544 199.162 C 455.544 198.947 455.704 198.804 455.863 198.733 L 476.169 192.658 C 476.328 192.587 476.488 192.658 476.648 192.73 C 476.808 192.801 476.887 192.944 476.887 193.087 L 476.808 210.239 C 476.808 210.454 476.648 210.597 476.488 210.668 L 456.264 217.958 C 456.184 217.958 456.103 217.958 456.103 217.958 C 455.943 217.958 455.863 217.958 455.783 217.887" style=""/>
  <path d="M 491.597 203.092 L 491.597 221.46 L 476.328 209.168 L 476.408 193.087 Z" fill="#fff" style=""/>
  <path d="M 476.808 208.953 L 491.117 220.388 L 491.117 203.307 L 476.887 194.017 Z M 491.276 221.817 L 475.929 209.525 C 475.848 209.454 475.768 209.311 475.768 209.168 L 475.848 193.087 C 475.848 192.944 475.929 192.73 476.169 192.658 C 476.328 192.587 476.568 192.587 476.728 192.73 L 491.996 202.664 L 491.677 203.022 L 491.996 202.664 C 492.156 202.736 492.236 202.879 492.236 203.022 L 492.236 221.388 C 492.236 221.603 492.076 221.746 491.916 221.817 C 491.837 221.817 491.757 221.889 491.677 221.889 C 491.517 221.889 491.357 221.889 491.276 221.817" style=""/>
  <path d="M 483.203 191.015 C 480.406 190.514 477.607 191.301 475.608 192.801 C 475.529 192.873 475.449 192.873 475.449 192.944 C 474.33 190.729 472.091 188.87 469.213 188.298 C 468.894 188.227 468.574 188.227 468.335 188.155 C 468.014 188.155 467.775 188.084 467.455 188.084 C 463.298 188.084 459.541 190.657 458.662 194.373 C 456.663 202.521 464.018 210.883 470.413 214.314 C 477.847 213.456 488.319 208.524 490.238 200.377 C 491.117 196.232 488.08 191.943 483.203 191.015 Z" style=""/>
  <path d="M 490.077 200.52 C 490.157 200.163 490.238 199.948 490.238 199.662 C 490.238 200.091 490.077 200.52 490.077 200.52 Z" style=""/>
  <path d="M 468.734 211.955 L 468.734 230.322 L 456.103 217.529 L 456.103 199.162 Z" fill="#fff" style=""/>
  <path d="M 456.583 217.315 L 468.174 229.036 L 468.174 212.098 L 456.583 200.377 Z M 468.335 230.608 L 455.704 217.815 C 455.624 217.744 455.544 217.601 455.544 217.529 L 455.544 199.162 C 455.544 198.947 455.704 198.804 455.863 198.733 C 456.103 198.661 456.264 198.733 456.423 198.876 L 469.053 211.669 L 468.654 211.955 L 469.053 211.669 C 469.133 211.741 469.213 211.884 469.213 211.955 L 469.213 230.322 C 469.213 230.537 469.053 230.68 468.894 230.751 C 468.814 230.751 468.734 230.751 468.734 230.751 C 468.574 230.823 468.414 230.751 468.335 230.608" style=""/>
  <path d="M 468.734 211.955 L 468.734 230.322 L 491.597 221.388 L 491.597 203.022 Z" fill="#fff" style=""/>
  <path d="M 469.213 229.608 L 491.117 221.103 L 491.117 203.736 L 469.213 212.24 Z M 468.414 230.751 C 468.255 230.68 468.174 230.537 468.174 230.394 L 468.174 211.955 C 468.174 211.741 468.335 211.598 468.494 211.526 L 491.437 202.593 C 491.597 202.521 491.757 202.521 491.916 202.664 C 492.076 202.736 492.156 202.879 492.156 203.022 L 492.156 221.388 C 492.156 221.603 491.996 221.746 491.837 221.817 L 468.894 230.751 C 468.814 230.751 468.734 230.823 468.654 230.823 C 468.574 230.823 468.494 230.751 468.414 230.751" style=""/>
  <path d="M 468.734 211.955 L 464.337 220.317 L 451.707 207.524 L 456.103 199.162 Z" fill="#fff" style=""/>
  <path d="M 452.346 207.453 L 464.257 219.459 L 468.174 212.027 L 456.264 200.02 Z M 463.938 220.674 L 451.307 207.881 C 451.147 207.738 451.147 207.524 451.227 207.381 L 455.624 199.019 C 455.704 198.876 455.863 198.804 456.023 198.733 C 456.184 198.733 456.344 198.733 456.503 198.876 L 469.133 211.669 L 468.734 211.955 L 469.133 211.669 C 469.293 211.812 469.293 212.027 469.213 212.169 L 464.816 220.531 C 464.737 220.674 464.577 220.746 464.417 220.817 L 464.337 220.817 C 464.177 220.817 464.018 220.746 463.938 220.674" style=""/>
  <path d="M 468.734 211.955 L 472.651 222.246 L 495.593 213.313 L 491.597 203.022 Z" fill="#fff" style=""/>
  <path d="M 472.971 221.603 L 494.954 213.027 L 491.357 203.664 L 469.374 212.24 Z M 472.411 222.675 C 472.251 222.604 472.171 222.532 472.091 222.389 L 468.174 212.098 C 468.094 211.884 468.174 211.598 468.494 211.526 L 491.437 202.593 C 491.597 202.521 491.757 202.521 491.837 202.593 C 491.996 202.664 492.076 202.736 492.156 202.879 L 496.073 213.17 C 496.153 213.384 496.073 213.67 495.754 213.742 L 472.811 222.675 C 472.731 222.675 472.651 222.747 472.571 222.747 C 472.571 222.675 472.491 222.675 472.411 222.675" style=""/>
</svg>