<?xml version="1.0" encoding="utf-8"?>
<svg viewBox="0 0 500 500" xmlns="http://www.w3.org/2000/svg">
  <g transform="matrix(0.171228, 0, 0, -0.173676, 9.215378, 328.991509)" fill="#000000" stroke="none" style="">
    <path d="M113 844 c-54 -27 -76 -75 -81 -175 -6 -126 2 -143 108 -224 l90 -68 0 -109 0 -109 -27 3 c-28 3 -28 4 -33 88 l-5 85 -62 3 c-60 3 -63 2 -69 -23 -4 -15 -4 -59 -2 -100 8 -127 61 -181 176 -179 70 1 101 17 140 74 20 30 22 44 22 168 l0 134 -37 37 c-21 20 -66 58 -101 84 l-63 48 3 77 c3 75 4 77 28 77 21 0 25 -5 28 -35 6 -81 6 -81 75 -78 l62 3 3 65 c3 75 -17 117 -70 150 -41 25 -138 27 -185 4z"/>
    <path d="M412 448 l3 -413 44 -3 c95 -7 90 -16 93 191 l3 182 34 -93 c19 -51 37 -95 41 -97 3 -2 22 39 41 92 l34 96 3 -178 c2 -128 6 -181 15 -187 16 -10 108 -10 125 0 9 7 12 96 10 413 l-3 404 -65 0 -65 0 -44 -193 c-25 -106 -48 -189 -52 -185 -4 5 -24 82 -44 173 -52 226 -43 210 -115 210 l-60 0 2 -412z"/>
    <path d="M970 842 c-22 -12 -44 -35 -58 -63 -22 -43 -23 -48 -20 -346 3 -289 4 -303 24 -330 36 -48 81 -68 152 -67 67 1 97 15 136 68 20 26 21 42 24 334 3 343 1 352 -68 400 -43 29 -139 31 -190 4z m115 -392 l0 -285 -25 0 -25 0 -3 275 c-1 151 0 281 3 288 3 7 15 12 27 10 l23 -3 0 -285z"/>
    <path d="M1340 842 c-56 -29 -80 -88 -80 -194 0 -48 5 -99 12 -113 6 -14 43 -49 83 -79 112 -84 106 -73 103 -190 -3 -100 -3 -101 -28 -101 -24 0 -25 2 -30 85 l-5 85 -65 0 -65 0 0 -102 c0 -114 11 -140 76 -178 47 -28 148 -27 186 1 63 48 68 62 68 221 l0 146 -40 33 c-22 18 -65 52 -95 76 l-55 44 0 80 c0 78 0 79 25 79 23 0 25 -4 30 -55 l5 -55 65 0 65 0 3 60 c3 72 -18 119 -67 152 -44 30 -139 32 -191 5z"/>
    <path d="M1638 763 c-10 -283 -8 -705 3 -719 6 -8 30 -14 54 -14 78 0 75 -5 75 161 l0 149 40 0 39 0 3 -152 3 -153 39 -3 c22 -2 50 -1 63 2 l23 6 0 410 0 410 -65 0 -65 0 0 -190 0 -190 -40 0 -40 0 0 190 0 190 -64 0 -65 0 -3 -97z"/>
    <path d="M2038 828 c11 -18 66 -111 121 -206 l102 -173 -115 -198 c-64 -109 -116 -203 -116 -210 0 -8 20 -11 68 -9 l67 3 102 135 c96 127 123 156 123 131 0 -14 53 -41 79 -41 18 0 13 -14 -44 -106 -36 -59 -65 -108 -65 -110 0 -2 33 -4 73 -3 l72 0 128 198 c70 109 127 204 126 212 0 8 -58 102 -127 209 l-127 195 -74 3 c-61 2 -73 0 -68 -12 3 -8 37 -69 76 -136 39 -66 71 -122 71 -124 0 -1 -24 -1 -54 2 -33 3 -56 0 -60 -7 -17 -26 -39 -3 -132 134 l-98 145 -74 0 -74 0 20 -32z m502 -340 c30 -16 46 -30 48 -45 2 -13 0 -23 -3 -23 -14 0 -135 72 -135 81 0 16 45 10 90 -13z m-39 -118 c38 -20 45 -40 13 -40 -12 0 -70 25 -83 36 -6 5 10 24 20 24 5 0 28 -9 50 -20z"/>
    <path d="M2642 838 c-7 -7 -12 -27 -12 -45 0 -42 35 -63 75 -45 19 9 25 19 25 45 0 18 -5 38 -12 45 -15 15 -61 15 -76 0z m68 -13 c26 -32 -13 -81 -47 -59 -35 22 -23 74 17 74 10 0 23 -7 30 -15z"/>
    <path d="M2661 798 c0 -18 3 -27 6 -20 4 10 8 10 20 0 13 -10 14 -8 11 17 -2 19 -10 31 -20 33 -14 3 -18 -3 -17 -30z m29 12 c0 -5 -5 -10 -11 -10 -5 0 -7 5 -4 10 3 6 8 10 11 10 2 0 4 -4 4 -10z"/>
  </g>
</svg>