<?xml version="1.0" standalone="no"?>
<!DOCTYPE svg PUBLIC "-//W3C//DTD SVG 20010904//EN"
 "http://www.w3.org/TR/2001/REC-SVG-20010904/DTD/svg10.dtd">
<svg version="1.0" xmlns="http://www.w3.org/2000/svg"
 width="300.000000pt" height="300.000000pt" viewBox="0 0 300.000000 300.000000"
 preserveAspectRatio="xMidYMid meet">
<metadata>
Created by potrace 1.10, written by Peter Selinger 2001-2011
</metadata>
<g transform="translate(0.000000,300.000000) scale(0.100000,-0.100000)"
fill="#000000" stroke="none">
<path d="M299 1991 c-53 -11 -105 -47 -123 -85 -32 -67 -14 -153 38 -186 11
-7 52 -26 91 -40 80 -31 100 -53 70 -76 -27 -21 -84 -10 -112 21 -12 14 -28
23 -35 20 -7 -2 -39 -9 -70 -15 -38 -7 -58 -16 -58 -25 0 -19 57 -83 89 -100
52 -26 147 -39 208 -26 106 21 163 82 163 175 0 68 -38 106 -146 147 -73 27
-85 35 -82 53 5 33 71 35 100 3 21 -23 21 -23 84 -8 36 8 64 20 64 27 0 21
-51 74 -89 94 -43 21 -139 32 -192 21z"/>
<path d="M1239 1986 c-111 -40 -179 -150 -179 -290 1 -165 137 -261 304 -215
51 14 129 88 154 147 82 191 -11 373 -189 372 -30 -1 -70 -7 -90 -14z m119
-122 c58 -40 -2 -274 -70 -274 -62 0 -78 52 -53 166 24 110 67 147 123 108z"/>
<path d="M2622 1990 c-83 -18 -135 -77 -135 -156 0 -73 27 -104 134 -150 100
-43 121 -66 75 -84 -36 -13 -83 -2 -104 25 -18 23 -19 23 -95 8 l-76 -16 14
-27 c20 -38 77 -86 122 -101 58 -20 181 -17 223 5 73 38 110 89 110 153 0 73
-50 123 -158 158 -64 20 -88 41 -71 61 19 23 75 17 97 -10 19 -25 19 -25 78
-10 32 9 62 19 67 23 14 14 -38 76 -83 98 -52 26 -137 36 -198 23z"/>
<path d="M666 1963 c-12 -59 -76 -449 -76 -465 0 -16 10 -18 74 -18 l73 0 14
88 14 87 83 7 c93 8 135 27 168 75 55 82 29 188 -56 231 -39 19 -60 22 -166
22 l-122 0 -6 -27z m208 -99 c10 -4 16 -18 16 -35 0 -33 -23 -49 -69 -49 -33
0 -35 6 -25 59 5 26 11 31 34 31 16 0 35 -3 44 -6z"/>
<path d="M1647 1973 c-3 -10 -22 -115 -42 -233 -19 -118 -38 -225 -40 -238 -6
-22 -4 -23 72 -20 l78 3 12 79 c15 101 18 106 46 106 21 0 27 -8 40 -57 9 -32
19 -75 23 -95 l6 -38 80 0 c71 0 79 2 74 18 -3 9 -14 55 -26 101 l-21 84 36
29 c19 17 42 43 50 58 21 41 19 109 -5 147 -34 57 -68 67 -232 71 -135 4 -146
2 -151 -15z m232 -112 c40 -40 1 -81 -75 -81 -32 0 -34 2 -34 34 0 56 8 66 51
66 25 0 46 -7 58 -19z"/>
<path d="M2107 1983 c-3 -5 -8 -32 -12 -60 l-7 -53 51 0 c40 0 51 -3 51 -16 0
-16 -44 -288 -56 -347 l-6 -28 78 3 78 3 26 155 c15 85 30 172 34 193 l7 37
54 0 c59 0 58 -1 70 78 l7 42 -186 0 c-101 0 -187 -3 -189 -7z"/>
<path d="M1522 1392 c-39 -12 -94 -63 -114 -108 -37 -85 -19 -211 36 -250 63
-44 156 -37 212 17 30 29 62 85 53 93 -2 2 -24 6 -49 9 -42 6 -46 4 -62 -24
-22 -38 -74 -42 -87 -6 -11 28 5 134 25 165 27 41 84 23 84 -26 0 -20 4 -23
23 -18 12 3 37 6 55 6 27 0 32 4 32 24 0 34 -40 88 -80 108 -35 18 -86 22
-128 10z"/>
<path d="M155 1368 c-7 -35 -55 -333 -55 -346 0 -15 189 -16 240 -2 142 39
178 285 51 349 -32 17 -59 21 -135 21 -91 0 -96 -1 -101 -22z m172 -73 c28
-20 37 -63 23 -117 -16 -60 -35 -78 -82 -78 -45 0 -45 -1 -22 123 14 78 18 87
38 87 12 0 31 -7 43 -15z"/>
<path d="M550 1381 c0 -5 -13 -87 -30 -183 -16 -95 -30 -176 -30 -180 0 -5 25
-8 55 -8 30 0 55 4 55 8 0 5 13 87 30 183 16 96 30 177 30 182 0 4 -25 7 -55
7 -30 0 -55 -4 -55 -9z"/>
<path d="M694 1200 l-30 -190 52 0 c59 0 59 0 69 84 7 54 9 57 33 54 24 -3 28
-10 40 -70 l15 -68 58 0 57 0 -20 76 -21 76 31 25 c64 50 60 152 -8 185 -27
14 -60 18 -140 18 l-105 0 -31 -190z m204 101 c8 -4 12 -19 10 -32 -3 -21 -9
-24 -52 -27 -42 -3 -48 -1 -42 13 3 9 6 25 6 36 0 15 7 19 33 19 17 0 38 -4
45 -9z"/>
<path d="M1105 1378 c-2 -7 -17 -92 -33 -188 l-28 -175 135 -3 c74 -1 138 1
141 5 4 4 11 25 14 46 l7 37 -86 0 c-88 0 -95 4 -79 44 5 12 21 16 75 16 52 0
69 3 69 14 0 7 3 28 6 45 l7 31 -67 0 -67 0 3 28 c3 27 4 27 84 30 l82 3 6 31
c3 17 6 34 6 39 0 15 -270 11 -275 -3z"/>
<path d="M1765 1363 c-14 -66 -16 -63 26 -63 47 0 47 2 19 -159 -11 -62 -20
-117 -20 -122 0 -5 25 -9 55 -9 53 0 54 0 59 33 3 17 13 75 21 127 22 134 20
130 65 130 42 0 40 -3 55 73 3 15 -9 17 -136 17 l-139 0 -5 -27z"/>
<path d="M2203 1245 c-72 -31 -98 -144 -47 -204 22 -26 33 -31 71 -31 36 0 50
6 74 29 16 16 29 37 29 45 0 23 -52 20 -73 -4 -20 -24 -30 -25 -47 -5 -14 17
-6 90 12 112 16 20 49 16 55 -7 8 -29 63 -28 63 1 0 33 -17 56 -51 68 -40 14
-46 13 -86 -4z"/>
<path d="M2433 1246 c-45 -20 -73 -70 -73 -129 0 -40 5 -54 29 -78 24 -24 38
-29 77 -29 40 0 51 5 80 35 53 57 56 143 6 188 -27 24 -80 30 -119 13z m72
-104 c-1 -61 -23 -94 -53 -76 -23 15 -26 54 -8 99 12 29 20 36 38 33 21 -3 23
-8 23 -56z"/>
<path d="M2640 1248 c0 -2 -9 -55 -20 -118 -11 -63 -20 -116 -20 -118 0 -2 12
-2 27 0 26 3 28 8 39 71 6 37 13 70 17 73 3 3 8 -21 12 -53 3 -32 7 -65 8 -73
1 -8 12 -16 23 -18 17 -2 26 10 52 68 18 38 35 70 38 70 6 0 -2 -71 -13 -117
-5 -20 -1 -23 29 -23 l34 0 20 120 20 120 -49 0 -48 0 -27 -57 c-24 -53 -26
-56 -33 -33 -4 14 -7 40 -8 58 -1 32 -1 32 -51 32 -27 0 -50 -1 -50 -2z"/>
<path d="M2018 1040 c-4 -28 -2 -30 28 -30 28 0 32 4 36 30 4 28 2 30 -28 30
-28 0 -32 -4 -36 -30z"/>
</g>
</svg>
