<?xml version="1.0" standalone="no"?>
<!DOCTYPE svg PUBLIC "-//W3C//DTD SVG 20010904//EN"
 "http://www.w3.org/TR/2001/REC-SVG-20010904/DTD/svg10.dtd">
<svg version="1.0" xmlns="http://www.w3.org/2000/svg"
 width="256.000000pt" height="256.000000pt" viewBox="0 0 256.000000 256.000000"
 preserveAspectRatio="xMidYMid meet">
<metadata>
Created by potrace 1.10, written by Peter Selinger 2001-2011
</metadata>
<g transform="translate(0.000000,256.000000) scale(0.100000,-0.100000)"
fill="#000000" stroke="none">
<path d="M715 2445 c-74 -26 -125 -112 -111 -188 4 -19 18 -52 31 -72 l25 -36
-54 -82 c-102 -155 -139 -277 -139 -462 1 -134 21 -233 73 -343 106 -226 305
-390 549 -453 88 -23 252 -27 352 -9 246 45 479 228 590 463 71 152 92 355 55
522 -21 93 -87 240 -139 308 -21 26 -37 49 -37 52 0 3 12 24 27 46 53 81 29
189 -55 241 -73 45 -186 20 -228 -51 l-16 -28 -67 25 c-188 68 -384 68 -572 0
l-65 -24 -36 41 c-23 26 -51 46 -76 53 -49 15 -57 15 -107 -3z m386 -511 c17
-8 28 -21 26 -27 -4 -12 -12 -12 -68 0 -16 3 -30 -1 -38 -11 -17 -20 -41 -21
-41 -2 0 19 48 56 72 56 10 0 33 -7 49 -16z m463 -5 c28 -22 35 -49 12 -49 -7
0 -19 7 -27 16 -13 16 -44 15 -81 -1 -28 -11 -23 30 5 43 34 17 62 14 91 -9z
m-187 -230 c75 -47 102 -157 55 -229 -12 -19 -30 -52 -40 -72 -17 -38 -36 -48
-46 -25 -9 21 -36 -24 -36 -60 0 -22 -5 -33 -15 -33 -14 0 -20 14 -27 65 -5
29 -36 32 -40 3 -4 -33 -21 -25 -32 14 -5 18 -24 54 -42 79 -42 58 -52 115
-30 173 40 104 158 144 253 85z m-572 -266 c64 -109 207 -213 341 -248 75 -19
203 -19 278 0 75 20 178 74 238 125 57 49 133 161 156 231 l18 51 18 -40 c23
-51 24 -138 1 -184 -24 -50 -422 -452 -472 -477 -51 -25 -137 -28 -191 -5 -46
19 -432 400 -470 464 -34 56 -37 154 -8 209 l18 34 22 -56 c13 -30 36 -77 51
-104z"/>
<path d="M1250 1670 c-26 -26 -25 -52 0 -75 30 -27 24 -79 -9 -83 -13 -2 -27
1 -30 7 -4 6 -12 7 -21 0 -24 -15 26 -52 59 -43 14 3 32 6 39 5 53 -5 75 -2
90 13 14 14 15 18 3 25 -9 6 -21 5 -31 -1 -45 -28 -71 40 -30 77 11 10 20 26
20 37 0 22 -34 58 -55 58 -8 0 -24 -9 -35 -20z"/>
<path d="M1329 713 c-11 -12 -15 -68 -17 -236 -3 -195 -1 -221 14 -238 19 -21
54 -25 70 -9 7 7 22 6 47 -5 73 -30 156 -8 214 58 61 69 67 154 16 236 -40 63
-100 94 -175 89 l-58 -4 0 53 c0 41 -4 54 -19 63 -30 15 -77 12 -92 -7z m230
-259 c12 -15 21 -35 21 -46 0 -26 -44 -68 -71 -68 -32 0 -69 38 -69 72 0 64
80 92 119 42z"/>
<path d="M1005 598 c-37 -13 -91 -63 -112 -103 -21 -39 -21 -131 -1 -170 33
-63 113 -115 175 -115 79 0 149 43 184 113 32 61 24 153 -17 204 -56 70 -148
99 -229 71z m115 -138 c41 -41 12 -120 -44 -120 -38 0 -69 32 -69 70 0 61 71
92 113 50z"/>
<path d="M497 582 c-27 -29 -20 -58 41 -197 l58 -131 -29 -67 c-24 -55 -27
-69 -17 -82 17 -21 83 -19 109 2 28 23 202 418 194 441 -18 50 -76 70 -104 36
-8 -9 -30 -50 -49 -91 l-35 -76 -35 83 c-19 45 -42 86 -52 91 -27 15 -64 10
-81 -9z"/>
<path d="M1764 574 c-26 -25 -26 -28 -23 -144 3 -102 7 -123 25 -147 31 -42
77 -64 142 -70 46 -4 65 0 101 19 76 39 85 61 89 198 4 116 3 120 -22 145 -28
28 -53 32 -82 11 -16 -12 -20 -30 -24 -128 l-5 -113 -33 -3 c-55 -5 -62 8 -62
124 0 95 -2 104 -22 118 -32 23 -55 20 -84 -10z"/>
</g>
</svg>
